<svg width="60" height="60" viewBox="0 0 60 60" fill="none" xmlns="http://www.w3.org/2000/svg">
<g id="Frame" clip-path="url(#clip0_2508_12)">
<path id="Vector" fill-rule="evenodd" clip-rule="evenodd" d="M30 54.5455C43.556 54.5455 54.5455 43.5559 54.5455 30C54.5455 16.4455 43.556 5.45456 30 5.45456C16.4455 5.45456 5.45459 16.4455 5.45459 30C5.45459 43.5559 16.4455 54.5455 30 54.5455Z" fill="#D9D9D9"/>
<g id="Mask group">
<mask id="mask0_2508_12" style="mask-type:luminance" maskUnits="userSpaceOnUse" x="0" y="0" width="60" height="60">
<g id="Group">
<path id="Vector_2" d="M60 0H0V60H60V0Z" fill="white"/>
<path id="Vector_3" fill-rule="evenodd" clip-rule="evenodd" d="M30 54.5455C43.556 54.5455 54.5455 43.5559 54.5455 30C54.5455 16.4455 43.556 5.45456 30 5.45456C16.4455 5.45456 5.45459 16.4455 5.45459 30C5.45459 43.5559 16.4455 54.5455 30 54.5455Z" fill="black"/>
</g>
</mask>
<g mask="url(#mask0_2508_12)">
<path id="Vector_4" d="M49.0909 30C49.0909 40.5435 40.5435 49.0909 30 49.0909V60C46.5683 60 60 46.5683 60 30H49.0909ZM30 10.9091C40.5432 10.9091 49.0909 19.4577 49.0909 30H60C60 13.4332 46.5686 0 30 0V10.9091ZM10.9091 30C10.9091 19.4579 19.4579 10.9091 30 10.9091V0C13.433 0 0 13.433 0 30H10.9091ZM30 49.0909C19.4577 49.0909 10.9091 40.5432 10.9091 30H0C0 46.5686 13.4332 60 30 60V49.0909Z" fill="white"/>
</g>
</g>
<path id="Vector_5" d="M54.5455 30C54.5455 43.5559 43.556 54.5455 30 54.5455C16.4455 54.5455 5.45459 43.5559 5.45459 30C5.45459 16.4455 16.4455 5.45456 30 5.45456C43.556 5.45456 54.5455 16.4455 54.5455 30Z" fill="#FFCC4D"/>
<path id="Vector_6" d="M39.5455 40.9091H20.4545C19.7018 40.9091 19.0909 40.2995 19.0909 39.5454C19.0909 38.7913 19.7018 38.1818 20.4545 38.1818H39.5455C40.2995 38.1818 40.9091 38.7913 40.9091 39.5454C40.9091 40.2995 40.2995 40.9091 39.5455 40.9091ZM25.9091 30H16.3636C15.6109 30 15 29.3891 15 28.6363C15 27.8836 15.6109 27.2727 16.3636 27.2727H25.9091C26.6618 27.2727 27.2727 27.8836 27.2727 28.6363C27.2727 29.3891 26.6618 30 25.9091 30ZM43.6364 30H34.0909C33.3368 30 32.7273 29.3891 32.7273 28.6363C32.7273 27.8836 33.3368 27.2727 34.0909 27.2727H43.6364C44.3905 27.2727 45 27.8836 45 28.6363C45 29.3891 44.3905 30 43.6364 30Z" fill="#664500"/>
</g>
<defs>
<clipPath id="clip0_2508_12">
<rect width="60" height="60" fill="white"/>
</clipPath>
</defs>
</svg>
